solid simple_plate
   facet normal -1.000000e+00 2.287306e-17 0.000000e+00
      outer loop
         vertex 0.000000e+00 0.000000e+00 1.600000e-01
         vertex 9.149222e-19 4.000000e-02 1.600000e-01
         vertex 0.000000e+00 0.000000e+00 0.000000e+00
      endloop
   endfacet
   facet normal -1.000000e+00 2.287306e-17 0.000000e+00
      outer loop
         vertex 9.149222e-19 4.000000e-02 1.600000e-01
         vertex 9.149222e-19 4.000000e-02 0.000000e+00
         vertex 0.000000e+00 0.000000e+00 0.000000e+00
      endloop
   endfacet
   facet normal 0.000000e+00 -1.000000e+00 0.000000e+00
      outer loop
         vertex 1.360000e-01 0.000000e+00 0.000000e+00
         vertex 0.000000e+00 0.000000e+00 1.600000e-01
         vertex 0.000000e+00 0.000000e+00 0.000000e+00
      endloop
   endfacet
   facet normal 0.000000e+00 -0.000000e+00 -1.000000e+00
      outer loop
         vertex 3.000000e-03 3.000000e-03 0.000000e+00
         vertex 1.360000e-01 0.000000e+00 0.000000e+00
         vertex 0.000000e+00 0.000000e+00 0.000000e+00
      endloop
   endfacet
   facet normal 0.000000e+00 -0.000000e+00 -1.000000e+00
      outer loop
         vertex 3.000000e-03 4.000000e-02 0.000000e+00
         vertex 3.000000e-03 3.000000e-03 0.000000e+00
         vertex 0.000000e+00 0.000000e+00 0.000000e+00
      endloop
   endfacet
   facet normal 0.000000e+00 -0.000000e+00 -1.000000e+00
      outer loop
         vertex 9.149222e-19 4.000000e-02 0.000000e+00
         vertex 3.000000e-03 4.000000e-02 0.000000e+00
         vertex 0.000000e+00 0.000000e+00 0.000000e+00
      endloop
   endfacet
   facet normal -0.000000e+00 -1.000000e+00 -0.000000e+00
      outer loop
         vertex 1.360000e-01 0.000000e+00 1.600000e-01
         vertex 0.000000e+00 0.000000e+00 1.600000e-01
         vertex 1.360000e-01 0.000000e+00 0.000000e+00
      endloop
   endfacet
   facet normal 1.000000e+00 0.000000e+00 0.000000e+00
      outer loop
         vertex 1.360000e-01 4.000000e-02 0.000000e+00
         vertex 1.360000e-01 0.000000e+00 1.600000e-01
         vertex 1.360000e-01 0.000000e+00 0.000000e+00
      endloop
   endfacet
   facet normal 0.000000e+00 0.000000e+00 -1.000000e+00
      outer loop
         vertex 1.330000e-01 3.000000e-03 0.000000e+00
         vertex 1.360000e-01 4.000000e-02 0.000000e+00
         vertex 1.360000e-01 0.000000e+00 0.000000e+00
      endloop
   endfacet
   facet normal 0.000000e+00 0.000000e+00 -1.000000e+00
      outer loop
         vertex 3.000000e-03 3.000000e-03 0.000000e+00
         vertex 1.330000e-01 3.000000e-03 0.000000e+00
         vertex 1.360000e-01 0.000000e+00 0.000000e+00
      endloop
   endfacet
   facet normal 0.000000e+00 0.000000e+00 1.000000e+00
      outer loop
         vertex 3.000000e-03 3.000000e-03 1.600000e-01
         vertex 9.149222e-19 4.000000e-02 1.600000e-01
         vertex 0.000000e+00 0.000000e+00 1.600000e-01
      endloop
   endfacet
   facet normal 0.000000e+00 0.000000e+00 1.000000e+00
      outer loop
         vertex 1.330000e-01 3.000000e-03 1.600000e-01
         vertex 3.000000e-03 3.000000e-03 1.600000e-01
         vertex 0.000000e+00 0.000000e+00 1.600000e-01
      endloop
   endfacet
   facet normal 0.000000e+00 0.000000e+00 1.000000e+00
      outer loop
         vertex 1.360000e-01 0.000000e+00 1.600000e-01
         vertex 1.330000e-01 3.000000e-03 1.600000e-01
         vertex 0.000000e+00 0.000000e+00 1.600000e-01
      endloop
   endfacet
   facet normal 1.000000e+00 0.000000e+00 -0.000000e+00
      outer loop
         vertex 1.360000e-01 4.000000e-02 0.000000e+00
         vertex 1.360000e-01 4.000000e-02 1.600000e-01
         vertex 1.360000e-01 0.000000e+00 1.600000e-01
      endloop
   endfacet
   facet normal 0.000000e+00 0.000000e+00 1.000000e+00
      outer loop
         vertex 1.330000e-01 4.000000e-02 1.600000e-01
         vertex 1.330000e-01 3.000000e-03 1.600000e-01
         vertex 1.360000e-01 0.000000e+00 1.600000e-01
      endloop
   endfacet
   facet normal 0.000000e+00 0.000000e+00 1.000000e+00
      outer loop
         vertex 1.360000e-01 4.000000e-02 1.600000e-01
         vertex 1.330000e-01 4.000000e-02 1.600000e-01
         vertex 1.360000e-01 0.000000e+00 1.600000e-01
      endloop
   endfacet
   facet normal -0.000000e+00 1.000000e+00 0.000000e+00
      outer loop
         vertex 3.000000e-03 3.000000e-03 1.600000e-01
         vertex 1.330000e-01 3.000000e-03 1.600000e-01
         vertex 3.000000e-03 3.000000e-03 0.000000e+00
      endloop
   endfacet
   facet normal 0.000000e+00 1.000000e+00 0.000000e+00
      outer loop
         vertex 1.330000e-01 3.000000e-03 1.600000e-01
         vertex 1.330000e-01 3.000000e-03 0.000000e+00
         vertex 3.000000e-03 3.000000e-03 0.000000e+00
      endloop
   endfacet
   facet normal 1.000000e+00 0.000000e+00 0.000000e+00
      outer loop
         vertex 3.000000e-03 4.000000e-02 0.000000e+00
         vertex 3.000000e-03 3.000000e-03 1.600000e-01
         vertex 3.000000e-03 3.000000e-03 0.000000e+00
      endloop
   endfacet
   facet normal -1.000000e+00 0.000000e+00 0.000000e+00
      outer loop
         vertex 1.330000e-01 3.000000e-03 1.600000e-01
         vertex 1.330000e-01 4.000000e-02 1.600000e-01
         vertex 1.330000e-01 3.000000e-03 0.000000e+00
      endloop
   endfacet
   facet normal -1.000000e+00 0.000000e+00 -0.000000e+00
      outer loop
         vertex 1.330000e-01 4.000000e-02 1.600000e-01
         vertex 1.330000e-01 4.000000e-02 0.000000e+00
         vertex 1.330000e-01 3.000000e-03 0.000000e+00
      endloop
   endfacet
   facet normal 0.000000e+00 0.000000e+00 -1.000000e+00
      outer loop
         vertex 1.330000e-01 4.000000e-02 0.000000e+00
         vertex 1.360000e-01 4.000000e-02 0.000000e+00
         vertex 1.330000e-01 3.000000e-03 0.000000e+00
      endloop
   endfacet
   facet normal 1.000000e+00 0.000000e+00 -0.000000e+00
      outer loop
         vertex 3.000000e-03 4.000000e-02 0.000000e+00
         vertex 3.000000e-03 4.000000e-02 1.600000e-01
         vertex 3.000000e-03 3.000000e-03 1.600000e-01
      endloop
   endfacet
   facet normal 0.000000e+00 0.000000e+00 1.000000e+00
      outer loop
         vertex 3.000000e-03 4.000000e-02 1.600000e-01
         vertex 9.149222e-19 4.000000e-02 1.600000e-01
         vertex 3.000000e-03 3.000000e-03 1.600000e-01
      endloop
   endfacet
   facet normal -0.000000e+00 1.000000e+00 0.000000e+00
      outer loop
         vertex 9.149222e-19 4.000000e-02 1.600000e-01
         vertex 3.000000e-03 4.000000e-02 1.600000e-01
         vertex 9.149222e-19 4.000000e-02 0.000000e+00
      endloop
   endfacet
   facet normal 0.000000e+00 1.000000e+00 0.000000e+00
      outer loop
         vertex 3.000000e-03 4.000000e-02 1.600000e-01
         vertex 3.000000e-03 4.000000e-02 0.000000e+00
         vertex 9.149222e-19 4.000000e-02 0.000000e+00
      endloop
   endfacet
   facet normal -0.000000e+00 1.000000e+00 0.000000e+00
      outer loop
         vertex 1.330000e-01 4.000000e-02 1.600000e-01
         vertex 1.360000e-01 4.000000e-02 1.600000e-01
         vertex 1.330000e-01 4.000000e-02 0.000000e+00
      endloop
   endfacet
   facet normal 0.000000e+00 1.000000e+00 0.000000e+00
      outer loop
         vertex 1.360000e-01 4.000000e-02 1.600000e-01
         vertex 1.360000e-01 4.000000e-02 0.000000e+00
         vertex 1.330000e-01 4.000000e-02 0.000000e+00
      endloop
   endfacet
endsolid